<svg xmlns="http://www.w3.org/2000/svg" viewBox="0 0 512 512" role="img" aria-label="Wangcai recipe icon">
  <defs>
    <linearGradient id="bg" x1="0" y1="0" x2="1" y2="1">
      <stop offset="0%" stop-color="#ffedd5"/>
      <stop offset="100%" stop-color="#fed7aa"/>
    </linearGradient>
    <linearGradient id="fur" x1="0" y1="0" x2="1" y2="1">
      <stop offset="0%" stop-color="#f59e0b"/>
      <stop offset="100%" stop-color="#fb923c"/>
    </linearGradient>
  </defs>
  <rect width="512" height="512" rx="112" fill="url(#bg)"/>
  <circle cx="256" cy="284" r="152" fill="url(#fur)"/>
  <ellipse cx="160" cy="196" rx="64" ry="82" fill="url(#fur)"/>
  <ellipse cx="352" cy="196" rx="64" ry="82" fill="url(#fur)"/>
  <circle cx="196" cy="274" r="22" fill="#111827"/>
  <circle cx="316" cy="274" r="22" fill="#111827"/>
  <circle cx="188" cy="266" r="6" fill="#ffffff"/>
  <circle cx="308" cy="266" r="6" fill="#ffffff"/>
  <ellipse cx="256" cy="320" rx="28" ry="20" fill="#111827"/>
  <path d="M228 340c18 18 38 18 56 0" stroke="#111827" stroke-width="10" stroke-linecap="round" fill="none"/>
  <path d="M176 360c16 20 28 28 80 28s64-8 80-28" stroke="#111827" stroke-width="10" stroke-linecap="round" fill="none"/>
  <path d="M96 356c24 18 52 20 78 12" stroke="#f97316" stroke-width="12" stroke-linecap="round" fill="none"/>
  <path d="M416 356c-24 18-52 20-78 12" stroke="#f97316" stroke-width="12" stroke-linecap="round" fill="none"/>
  <circle cx="256" cy="412" r="30" fill="#f97316"/>
  <path d="M242 412h28" stroke="#ffffff" stroke-width="6" stroke-linecap="round"/>
</svg>
